<?xml version="1.0"?>
<svg xmlns="http://www.w3.org/2000/svg" viewBox="0 0 268 61">
  <g fill="none" fill-rule="evenodd">
    <path fill="#292933" d="M62.1 59C51.3 59 43 51.5 43 40.5S51.3 22 62.1 22c8.6 0 13.1 4.9 15.5 9.6l-7.9 3.8a8.5 8.5 0 0 0-7.6-5.2c-5.7 0-9.8 4.5-9.8 10.3 0 5.8 4 10.3 9.8 10.3 3.4 0 6.5-2.3 7.6-5.2l7.9 3.8A16.4 16.4 0 0 1 62 59zm36.7 0C88 59 79.7 51.5 79.7 40.5S88 22 98.8 22c8.6 0 13.1 4.9 15.5 9.6l-7.9 3.8a8.5 8.5 0 0 0-7.6-5.2c-5.7 0-9.8 4.5-9.8 10.3 0 5.8 4 10.3 9.8 10.3 3.4 0 6.5-2.3 7.6-5.2l7.9 3.8A16.4 16.4 0 0 1 98.8 59zm45.3-.6h-26V22.6h26v8h-16.8v5.6h16.5v8h-16.5v6.1h16.8v8zm18.5.6c-7.2 0-12.2-2.3-15.7-5.7l4.8-6.9a16 16 0 0 0 11.3 4.7c3.1 0 5-1.2 5-3 0-4.8-20-.9-20-14.7 0-6 5-11.3 14.1-11.3 5.7 0 10.6 1.7 14.4 5l-5 6.5c-3-2.4-6.9-3.7-10.4-3.7-2.6 0-3.8 1.1-3.8 2.6 0 4.6 20 1.2 20 14.5 0 7.2-5.2 12-14.7 12zm32.1 0c-7.1 0-12.1-2.3-15.7-5.7l4.8-6.9a16 16 0 0 0 11.3 4.7c3.2 0 5-1.2 5-3 0-4.8-20-.9-20-14.7 0-6 5-11.3 14.1-11.3 5.7 0 10.6 1.7 14.4 5l-5 6.5c-3-2.4-6.8-3.7-10.3-3.7-2.7 0-3.8 1.1-3.8 2.6 0 4.6 20 1.2 20 14.5 0 7.2-5.3 12-14.8 12zm42.3-.6h-23.3V22.6h9.1v27.7H237v8zm16.6 0h-9V43.9L231 22.6h10.3l7.7 13.2 7.6-13.2H267l-13.4 21.3v14.5z"/>
    <path fill="#F6BF35" d="M20 60a19 19 0 1 1 0-38 19 19 0 0 1 0 38zm-5-23.3c0 1.7 1.1 3.5 3 4.8l-1.5 7a2 2 0 0 0 2 2.5h4a2 2 0 0 0 2-2.4L23 41.5c1.9-1.3 3-3 3-4.8 0-3.3-2.5-5.7-5.5-5.7S15 33.4 15 36.7z"/>
    <path stroke="#F6BF35" stroke-linecap="round" stroke-width="8" d="M9 16.8C9 10.3 14.1 5 20.5 5S32 10.3 32 16.8V43"/>
  </g>
</svg>
