<?xml version="1.0"?>
<svg xmlns="http://www.w3.org/2000/svg" viewBox="0 0 268 60">
  <g fill="none" fill-rule="evenodd">
    <path fill="#292933" d="M62 59c-10.6 0-19-7.5-19-18 0-11.5 8.4-19 19-19 9 0 13.6 4.9 16 10l-8 3a9.3 9.3 0 0 0-8-5c-5.5.2-9.6 4.7-10 11 .4 5.3 4.5 9.8 10 10a9.3 9.3 0 0 0 8-5l8 3c-2.3 5-7 10-16 10zm37 0c-10.6 0-19-7.5-19-18 0-11.5 8.4-19 19-19 9 0 13.6 4.9 16 10l-8 3a9.3 9.3 0 0 0-8-5c-5.5.2-9.6 4.7-10 11 .4 5.3 4.5 9.8 10 10a9.3 9.3 0 0 0 8-5l8 3c-2.3 5-7 10-16 10zm45 0h-26V23h26v8h-17v6h17v8h-17v6h17v8zm18 0c-6.6 0-11.5-2.3-15-6l5-7c2.3 3 6.1 5.1 11 5 3 .1 4.9-1.1 5-3-.1-4.7-19.9-.8-20-15 .1-5.6 5-11 14-11a20 20 0 0 1 14 5l-5 7a13.2 13.2 0 0 0-10-4c-2.6-.1-3.7 1-4 2 .3 5 20 1.7 20 15 0 7.2-5.2 12-15 12zm32 0c-6.6 0-11.5-2.3-15-6l5-7c2.3 3 6.1 5.1 11 5 3 .1 4.9-1.1 5-3-.1-4.7-19.9-.8-20-15 .1-5.6 5-11 14-11a20 20 0 0 1 14 5l-5 7a13.2 13.2 0 0 0-10-4c-2.6-.1-3.7 1-4 2 .3 5 20 1.7 20 15 0 7.2-5.2 12-15 12zm43-1h-23V23h9v27h14v8zm16 0h-8V44.4L231 23h10l8 13.6 8-13.6h10l-14 21.4V58z"/>
    <path fill="#F6BF35" d="M20 60a19 19 0 1 1 0-38 19 19 0 0 1 0 38zm-5-23.3c0 1.7 1.1 3.5 3 4.8l-1.5 7a2 2 0 0 0 2 2.5h4a2 2 0 0 0 2-2.4L23 41.5c1.9-1.3 3-3 3-4.8 0-3.3-2.5-5.7-5.5-5.7S15 33.4 15 36.7z"/>
    <path stroke="#F6BF35" stroke-linecap="round" stroke-width="8" d="M9 16.8C9 10.3 14.1 5 20.5 5S32 10.3 32 16.8V43"/>
  </g>
</svg>
